<?xml version="1.0" encoding="utf-8"?>
<!-- Generator: Adobe Illustrator 19.0.0, SVG Export Plug-In . SVG Version: 6.00 Build 0)  -->
<svg version="1.1" id="Capa_1" xmlns="http://www.w3.org/2000/svg" xmlns:xlink="http://www.w3.org/1999/xlink" x="0px" y="0px"
	 viewBox="-368 164.7 221.8 233.3" style="enable-background:new -368 164.7 221.8 233.3;" xml:space="preserve">
<style type="text/css">
	.st0{opacity:0.3;}
	.st1{fill:#FFFFFF;}
</style>
<g class="st0">
	<path class="st1" d="M-146.2,172.5c-0.6,1.2-1.2,2.4-1.8,3.6c-2.4,4.8-4.7,9.6-7.1,14.4c-6.3,12.8-12.6,25.6-18.9,38.4
		c-4,8.2-8.1,16.4-12.1,24.6c-6.2,12.5-12.3,25-18.5,37.5c-4,8.2-8.1,16.4-12.1,24.7c-5.6,11.5-11.3,22.9-16.9,34.4
		c-4,8.2-8.1,16.4-12.1,24.6c-3.7,7.5-7.4,15.1-11.1,22.6c-0.1,0.2-0.2,0.3-0.4,0.7c-2.1-7.6-4.1-15-6.1-22.4c-2-7.4-4-14.8-6-22.2
		c-2-7.4-4-14.9-6.1-22.3c-2-7.4-4-14.8-6.1-22.2c-17.8,3.1-34.6,0.4-50.5-8.2c-8.5-4.6-15.8-10.8-22.1-18.4
		c11.4-5.9,22.7-11.7,34.1-17.6c6.4,6.3,14,10,22.9,10.8c7.3,0.7,14.3-0.7,20.7-4.1c7.2-3.8,12.6-9.5,16.1-16.8
		c3.5-7.4,4.4-15.1,2.9-23.2c0.4-0.2,0.7-0.4,1-0.6c16.8-9,33.6-17.9,50.4-26.9c18.6-9.9,37.1-19.8,55.7-29.7
		c1.4-0.7,2.8-1.4,4.1-2.1C-146.2,172.3-146.2,172.4-146.2,172.5z"/>
	<path class="st1" d="M-288.6,164.7c1.1,0.1,2.1,0.3,3.2,0.4c8.9,0.8,17.3,3.1,25.3,6.9c8.2,3.8,15.4,9,21.7,15.4
		c1.7,1.7,3.2,3.6,4.8,5.4c0.2,0.2,0.3,0.4,0.5,0.7c-11.7,6-23.4,12.1-35.1,18.1c-6.4-5.9-14-9.3-22.6-9.9
		c-6.8-0.5-13.4,0.8-19.5,3.9c-7,3.6-12.4,8.9-16.1,15.8c-3.7,6.9-4.9,14.3-3.9,22.2c-11.6,6-23.1,11.9-34.7,17.9
		c-0.1-0.3-0.2-0.5-0.3-0.7c-1.3-4.7-2.2-9.6-2.6-14.5c-0.3-4.3-0.3-8.5,0.1-12.8c0.7-7.8,2.6-15.2,5.6-22.4c4-9.6,9.8-18,17.3-25.2
		c7.9-7.6,17.1-13.2,27.5-16.9c6.5-2.3,13.2-3.6,20.1-4.1c0.3,0,0.6-0.1,0.8-0.2C-293.8,164.7-291.2,164.7-288.6,164.7z"/>
	<path class="st1" d="M-293.7,261.5c-12.9,0-22.9-10.3-23.1-22.6c-0.2-12.8,9.9-23.5,23-23.5c13.1,0,22.8,10.5,23.2,22.3
		C-270.3,250.3-280.3,261.4-293.7,261.5z"/>
</g>
</svg>
